<svg xmlns="http://www.w3.org/2000/svg" viewBox="0 0 40 40">
  <g transform="translate(0, 0)">
    <!-- Title -->
    <text x="0" y="-20" font-family="Arial, sans-serif" font-size="18" font-weight="bold" fill="#1f2937">Isotype (Symbol Only)</text>

    <!-- Circle -->
    <path fill-rule="evenodd" clip-rule="evenodd" d="M0 20c0 11.046 8.954 20 20 20s20-8.954 20-20S31.046 0 20 0 0 8.954 0 20Z" fill="#8470ff"/>

    <!-- Improved Smile -->
    <path fill-rule="evenodd" clip-rule="evenodd" d="M20 35c-7 0-12.8-4.8-14-11 C5.5 21.5 7 20 8.5 20h23c1.5 0 3 1.5 2.5 4 C32.8 30.2 27 35 20 35Z" fill="white"/>

    <!-- Improved B letter -->
    <path d="M12,7 h9 c4.5,0 6.5,3 6.5,6.5 c0,2.5 -1.5,4.5 -3.5,5.5 c2.5,1 4.5,3 4.5,5.5 c0,3.5 -3.5,6.5 -8,6.5 h-8.5 V7 z" fill="white"/>
    <path d="M16.5,11 h3.5 c1.5,0 2.5,1 2.5,2.5 c0,1.5 -1,2.5 -2.5,2.5 h-3.5 V11 z" fill="#8470ff"/>
    <path d="M16.5,20 h4.5 c1.5,0 2.5,1 2.5,2.5 c0,1.5 -1,2.5 -2.5,2.5 h-4.5 V20 z" fill="#8470ff"/>
  </g>
</svg>
