<svg viewBox="0 0 363 92" fill="none" xmlns="http://www.w3.org/2000/svg">
  <g clip-path="url(#clip0_7_178)">
  <path d="M94.44 68C92.4987 68 90.8693 67.376 89.552 66.128C88.304 64.8107 87.68 63.1813 87.68 61.24V32.328C87.68 30.5253 88.304 29 89.552 27.752C90.8 26.504 92.3253 25.88 94.128 25.88H104.112C107.995 25.88 111.115 26.9547 113.472 29.104C115.829 31.184 117.008 33.7493 117.008 36.8C117.008 40.0587 115.933 42.6587 113.784 44.6C117.528 46.5413 119.4 49.8693 119.4 54.584C119.4 58.536 118.117 61.76 115.552 64.256C112.987 66.752 109.555 68 105.256 68H94.44ZM98.392 59.68H105.672C107.059 59.68 108.203 59.264 109.104 58.432C110.075 57.6 110.56 56.3867 110.56 54.792C110.56 53.1973 110.109 51.984 109.208 51.152C108.307 50.32 107.128 49.904 105.672 49.904H98.392C97.352 49.904 96.832 50.424 96.832 51.464V58.12C96.832 59.16 97.352 59.68 98.392 59.68ZM98.392 42H104.112C105.36 42 106.331 41.584 107.024 40.752C107.717 39.92 108.064 39.0187 108.064 38.048C108.064 37.0773 107.717 36.2107 107.024 35.448C106.331 34.616 105.36 34.2 104.112 34.2H98.392C97.352 34.2 96.832 34.72 96.832 35.76V40.44C96.832 41.48 97.352 42 98.392 42ZM137.392 69.04C134.411 69.04 131.672 68.3467 129.176 66.96C126.68 65.5733 124.669 63.6667 123.144 61.24C121.688 58.744 120.96 55.936 120.96 52.816C120.96 49.6267 121.688 46.8533 123.144 44.496C124.669 42.0693 126.68 40.1973 129.176 38.88C131.672 37.4933 134.411 36.8 137.392 36.8C140.443 36.8 143.181 37.4933 145.608 38.88C148.104 40.1973 150.08 42.0693 151.536 44.496C152.992 46.8533 153.72 49.6267 153.72 52.816C153.72 55.936 152.992 58.744 151.536 61.24C150.08 63.6667 148.104 65.5733 145.608 66.96C143.181 68.3467 140.443 69.04 137.392 69.04ZM137.392 60.616C139.541 60.616 141.275 59.888 142.592 58.432C143.979 56.9067 144.672 55.0347 144.672 52.816C144.672 50.528 143.979 48.6907 142.592 47.304C141.275 45.9173 139.541 45.224 137.392 45.224C135.312 45.224 133.544 45.9173 132.088 47.304C130.701 48.6907 130.008 50.528 130.008 52.816C130.008 55.0347 130.701 56.9067 132.088 58.432C133.544 59.888 135.312 60.616 137.392 60.616ZM172.256 69.04C169.275 69.04 166.536 68.3467 164.04 66.96C161.544 65.5733 159.534 63.6667 158.008 61.24C156.552 58.744 155.824 55.936 155.824 52.816C155.824 49.6267 156.552 46.8533 158.008 44.496C159.534 42.0693 161.544 40.1973 164.04 38.88C166.536 37.4933 169.275 36.8 172.256 36.8C175.307 36.8 178.046 37.4933 180.472 38.88C182.968 40.1973 184.944 42.0693 186.4 44.496C187.856 46.8533 188.584 49.6267 188.584 52.816C188.584 55.936 187.856 58.744 186.4 61.24C184.944 63.6667 182.968 65.5733 180.472 66.96C178.046 68.3467 175.307 69.04 172.256 69.04ZM172.256 60.616C174.406 60.616 176.139 59.888 177.456 58.432C178.843 56.9067 179.536 55.0347 179.536 52.816C179.536 50.528 178.843 48.6907 177.456 47.304C176.139 45.9173 174.406 45.224 172.256 45.224C170.176 45.224 168.408 45.9173 166.952 47.304C165.566 48.6907 164.872 50.528 164.872 52.816C164.872 55.0347 165.566 56.9067 166.952 58.432C168.408 59.888 170.176 60.616 172.256 60.616ZM196.433 69.04C195.116 69.04 194.006 68.6587 193.105 67.896C192.204 67.1333 191.753 66.1627 191.753 64.984V26.296C191.753 25.1867 192.169 24.2507 193.001 23.488C193.902 22.656 195.046 22.24 196.433 22.24C197.75 22.24 198.825 22.656 199.657 23.488C200.489 24.2507 200.905 25.2213 200.905 26.4V44.288C200.905 45.12 201.148 45.536 201.633 45.536C201.772 45.536 202.049 45.3973 202.465 45.12L212.553 37.632C213.385 37.0773 214.286 36.8 215.257 36.8C216.436 36.8 217.406 37.216 218.169 38.048C218.932 38.88 219.313 39.8507 219.313 40.96C219.313 42.4853 218.62 43.6987 217.233 44.6L209.017 50.008C208.324 50.4933 207.977 51.0133 207.977 51.568C207.977 52.1227 208.254 52.5733 208.809 52.92L218.273 61.448C218.897 61.9333 219.313 62.488 219.521 63.112C219.729 63.736 219.833 64.3253 219.833 64.88C219.833 65.9893 219.382 66.96 218.481 67.792C217.649 68.624 216.644 69.04 215.465 69.04C214.286 69.04 213.246 68.5893 212.345 67.688L202.153 57.704C201.945 57.496 201.702 57.392 201.425 57.392C201.078 57.392 200.905 57.6693 200.905 58.224V64.88C200.905 66.0587 200.454 67.064 199.553 67.896C198.721 68.6587 197.681 69.04 196.433 69.04ZM226.626 68.728C225.308 68.728 224.199 68.3467 223.298 67.584C222.396 66.8213 221.946 65.8507 221.946 64.672V41.376C221.946 40.2667 222.362 39.3307 223.194 38.568C224.095 37.736 225.239 37.32 226.626 37.32C227.874 37.32 228.879 37.7013 229.642 38.464C230.474 39.1573 230.959 40.024 231.098 41.064C231.86 39.8853 232.9 38.88 234.218 38.048C235.535 37.216 236.922 36.8 238.378 36.8C239.279 36.8 240.146 36.904 240.978 37.112C241.948 37.3893 242.746 37.944 243.37 38.776C243.994 39.5387 244.306 40.44 244.306 41.48C244.306 42.936 243.82 44.1493 242.85 45.12C241.948 46.0213 240.874 46.3333 239.626 46.056C238.724 45.848 237.823 45.744 236.922 45.744C235.327 45.744 234.01 46.2987 232.97 47.408C231.93 48.5173 231.306 50.7707 231.098 54.168V64.568C231.098 65.7467 230.647 66.752 229.746 67.584C228.914 68.3467 227.874 68.728 226.626 68.728ZM251.041 69.04C249.724 69.04 248.615 68.624 247.713 67.792C246.812 66.96 246.361 65.92 246.361 64.672V29.832C246.361 28.5147 246.812 27.44 247.713 26.608C248.615 25.776 249.724 25.36 251.041 25.36C252.428 25.36 253.537 25.776 254.369 26.608C255.271 27.44 255.721 28.5147 255.721 29.832V39.816C255.721 41.2027 256.415 41.896 257.801 41.896H271.841C273.228 41.896 273.921 41.2027 273.921 39.816V29.832C273.921 28.5147 274.337 27.44 275.169 26.608C276.071 25.776 277.215 25.36 278.601 25.36C279.988 25.36 281.097 25.776 281.929 26.608C282.831 27.44 283.281 28.5147 283.281 29.832V64.672C283.281 65.9893 282.831 67.064 281.929 67.896C281.097 68.6587 279.988 69.04 278.601 69.04C277.284 69.04 276.175 68.6587 275.273 67.896C274.372 67.064 273.921 65.9893 273.921 64.672V52.504C273.921 51.1173 273.228 50.424 271.841 50.424H257.801C256.415 50.424 255.721 51.1173 255.721 52.504V64.672C255.721 65.9893 255.271 67.064 254.369 67.896C253.537 68.6587 252.428 69.04 251.041 69.04ZM309.522 41.272C309.522 39.9547 309.938 38.88 310.77 38.048C311.671 37.216 312.78 36.8 314.098 36.8C315.415 36.8 316.49 37.2507 317.322 38.152C318.223 38.984 318.674 40.024 318.674 41.272V55.936C318.674 58.7787 317.946 61.2053 316.49 63.216C315.034 65.1573 313.162 66.6133 310.874 67.584C308.586 68.5547 306.159 69.04 303.594 69.04C301.098 69.04 298.706 68.5547 296.418 67.584C294.13 66.6133 292.223 65.1573 290.698 63.216C289.242 61.2053 288.514 58.7787 288.514 55.936V41.272C288.514 39.9547 288.93 38.88 289.762 38.048C290.663 37.216 291.772 36.8 293.09 36.8C294.407 36.8 295.482 37.2507 296.314 38.152C297.215 38.984 297.666 40.024 297.666 41.272V55.52C297.666 56.976 298.22 58.1893 299.33 59.16C300.439 60.1307 301.86 60.616 303.594 60.616C305.327 60.616 306.748 60.1307 307.858 59.16C308.967 58.1893 309.522 56.976 309.522 55.52V41.272ZM340.238 69.04C337.118 69.04 334.484 68.0693 332.334 66.128C331.71 68.0693 330.289 69.04 328.07 69.04C326.753 69.04 325.644 68.6587 324.742 67.896C323.841 67.1333 323.39 66.1627 323.39 64.984V26.296C323.39 25.1867 323.806 24.2507 324.638 23.488C325.54 22.656 326.684 22.24 328.07 22.24C329.388 22.24 330.462 22.656 331.294 23.488C332.126 24.2507 332.542 25.2213 332.542 26.4V40.024C334.9 37.8747 337.569 36.8 340.55 36.8C345.126 36.8 348.766 38.256 351.47 41.168C354.244 44.0107 355.63 47.8933 355.63 52.816C355.63 57.7387 354.244 61.6907 351.47 64.672C348.697 67.584 344.953 69.04 340.238 69.04ZM339.51 60.616C341.66 60.616 343.358 59.888 344.606 58.432C345.924 56.9067 346.582 55.0347 346.582 52.816C346.582 50.528 345.924 48.6907 344.606 47.304C343.358 45.9173 341.66 45.224 339.51 45.224C337.43 45.224 335.732 45.9173 334.414 47.304C333.166 48.6907 332.542 50.528 332.542 52.816C332.542 55.0347 333.166 56.9067 334.414 58.432C335.732 59.888 337.43 60.616 339.51 60.616Z" fill="black"/>
  <path d="M43.292 66.14C40.024 66.14 37.022 65.38 34.286 63.86C31.55 62.34 29.346 60.25 27.674 57.59C26.078 54.854 25.28 51.776 25.28 48.356C25.28 44.86 26.078 41.82 27.674 39.236C29.346 36.576 31.55 34.524 34.286 33.08C37.022 31.56 40.024 30.8 43.292 30.8C46.636 30.8 49.638 31.56 52.298 33.08C55.034 34.524 57.2 36.576 58.796 39.236C60.392 41.82 61.19 44.86 61.19 48.356C61.19 51.776 60.392 54.854 58.796 57.59C57.2 60.25 55.034 62.34 52.298 63.86C49.638 65.38 46.636 66.14 43.292 66.14ZM43.292 56.906C45.648 56.906 47.548 56.108 48.992 54.512C50.512 52.84 51.272 50.788 51.272 48.356C51.272 45.848 50.512 43.834 48.992 42.314C47.548 40.794 45.648 40.034 43.292 40.034C41.012 40.034 39.074 40.794 37.478 42.314C35.958 43.834 35.198 45.848 35.198 48.356C35.198 50.788 35.958 52.84 37.478 54.512C39.074 56.108 41.012 56.906 43.292 56.906Z" fill="#2B7FFF"/>
  <line x1="29.5" y1="22.5" x2="29.5" y2="60.5" stroke="#2B7FFF" stroke-width="9" stroke-linecap="round"/>
  <line x1="29.5261" y1="61.5262" x2="40.5259" y2="61.5902" stroke="#2B7FFF" stroke-width="9" stroke-linecap="round"/>
  <line x1="25.0262" y1="35.5001" x2="45.0258" y2="35.6164" stroke="#2B7FFF" stroke-width="9"/>
  <path d="M34.6787 8.271C39.2028 5.63198 44.7972 5.63199 49.3213 8.271L70.791 20.7954C75.2548 23.3994 78 28.1784 78 33.3462V58.4458L77.9912 58.939C77.8188 64.0266 74.9918 68.6694 70.5195 71.1509L59.584 77.2183L49.4092 83.4575L48.9785 83.7114C44.6349 86.174 39.3265 86.232 34.9297 83.8657L34.4922 83.6216L13.209 71.2056C8.74525 68.6017 6.00017 63.8224 6 58.6548V33.3462C6 28.34 8.57579 23.698 12.7949 21.0454L13.209 20.7954L34.6787 8.271ZM44.2119 17.0298C42.8451 16.2325 41.1549 16.2325 39.7881 17.0298L18.3184 29.5542C16.9698 30.341 16.1396 31.7849 16.1396 33.3462V58.6548C16.1398 60.216 16.9698 61.6601 18.3184 62.4468L39.6016 74.8628C40.9981 75.6773 42.73 75.6579 44.1084 74.813L54.2832 68.5737L54.4717 68.4585L54.665 68.3511L65.5996 62.2847C66.9943 61.5109 67.8601 60.0407 67.8604 58.4458V33.3462C67.8604 31.7849 67.0302 30.341 65.6816 29.5542L44.2119 17.0298Z" fill="black"/>
  </g>
</svg>
